<svg width="18" height="10" viewBox="0 0 18 10" fill="none" xmlns="http://www.w3.org/2000/svg">
<path d="M0.875 1.30242L0.889477 1.27501C0.898873 1.25723 0.91016 1.238 0.919713 1.22173L0.92046 1.22046C0.930938 1.20261 0.939489 1.188 0.945994 1.17568L0.94828 1.17136L0.948363 1.17141C1.12423 0.867906 1.52385 0.793574 1.80707 1.00222C1.85898 1.03772 1.90323 1.08153 1.93825 1.11621C1.94825 1.12612 1.9575 1.13528 1.96597 1.14329L8.94983 7.75257C8.9661 7.76797 8.9811 7.78415 8.99454 7.79923C9.01371 7.78164 9.03219 7.76415 9.0525 7.74493L9.05341 7.74407C11.3864 5.53623 13.7194 3.3283 16.0606 1.12037L0.875 1.30242ZM0.875 1.30242V1.33341M0.875 1.30242V1.33341M0.875 1.33341V1.33381V1.33421V1.33462V1.33502V1.33542V1.33583V1.33623V1.33663V1.33703V1.33744V1.33784V1.33824V1.33865V1.33905V1.33945V1.33985V1.34026V1.34066V1.34106V1.34147V1.34187V1.34227V1.34268V1.34308V1.34348V1.34388V1.34429V1.34469V1.34509V1.3455V1.3459V1.3463V1.3467V1.34711V1.34751V1.34791V1.34832V1.34872V1.34912V1.34952V1.34993V1.35033V1.35073V1.35114V1.35154V1.35194V1.35235V1.35275V1.35315V1.35355V1.35396V1.35436V1.35476V1.35517V1.35557V1.35597V1.35637V1.35678V1.35718V1.35758V1.35799V1.35839V1.35879V1.3592V1.3596V1.36V1.3604V1.36081V1.36121V1.36161V1.36202V1.36242V1.36282V1.36322V1.36363V1.36403V1.36443V1.36484V1.36524V1.36564V1.36605V1.36645V1.36685V1.36725V1.36766V1.36806V1.36846V1.36887V1.36927V1.36967V1.37007V1.37048V1.37088V1.37128V1.37169V1.37209V1.37249V1.37289V1.3733V1.3737V1.3741V1.37451V1.37491V1.37531V1.37572V1.37612V1.37652V1.37692V1.37733V1.37773V1.37813V1.37854V1.37894V1.37934V1.37974V1.38015V1.38055V1.38095V1.38136V1.38176V1.38216V1.38257V1.38297V1.38337V1.38377V1.38418V1.38458V1.38498V1.38539V1.38579V1.38619V1.38659V1.387V1.3874V1.3878V1.38821V1.38861V1.38901V1.38942V1.38982V1.39022V1.39062V1.39103V1.39143V1.39183V1.39224V1.39264V1.39304V1.39344V1.39385V1.39425V1.39465V1.39506V1.39546V1.39586V1.39627V1.39667V1.39707V1.39747V1.39788V1.39828V1.39868V1.39909V1.39949V1.39989V1.40029V1.4007V1.4011V1.4015V1.40191V1.40231V1.40271V1.40311V1.40352V1.40392V1.40432V1.40473V1.40513V1.40553V1.40594V1.40634V1.40674V1.40714V1.40755V1.40795V1.40835V1.40876V1.40916V1.40956V1.40996V1.41037V1.41077V1.41117V1.41158V1.41198V1.41238V1.41279V1.41319V1.41359V1.41399V1.4144V1.4148V1.4152V1.41561V1.41601V1.41641V1.41681V1.41722V1.41762V1.41802V1.41843V1.41883V1.41923V1.41964V1.42004V1.42044V1.42084V1.42125V1.42165V1.42205V1.42246V1.42286V1.42326V1.42366V1.42407V1.42447V1.42487V1.42528V1.42568V1.42608V1.42648V1.42689V1.42729V1.42769V1.4281V1.4285V1.4289V1.42931V1.42971V1.43011V1.43051V1.43092V1.43132V1.43172V1.43213V1.43253V1.43293V1.43333V1.43374V1.43414V1.43454V1.43495V1.43535V1.43575V1.43616V1.43656V1.43696V1.43736V1.43777V1.43817V1.43857V1.43898V1.43938V1.43978V1.44018V1.44059V1.44099V1.44139V1.4418V1.4422V1.4426V1.44301V1.44341V1.44381V1.44421V1.44462V1.44502V1.44542V1.44583V1.44623V1.44663V1.44703V1.44744V1.44784V1.44824V1.44865V1.44905V1.44945V1.44986V1.45026V1.45066V1.45106V1.45147V1.45187V1.45227V1.45268V1.45308V1.45348V1.45388V1.45429V1.45469V1.45509V1.4555V1.4559V1.4563V1.4567V1.45711V1.45751V1.45791V1.45832V1.45872V1.45912V1.45953V1.45993V1.46033V1.46073V1.46114V1.46154V1.46194V1.46235V1.46275V1.46315V1.46355V1.46396V1.46436V1.46476V1.46517V1.46557V1.46597V1.46638V1.46678V1.46718V1.46758V1.46799V1.46839V1.46879V1.4692V1.4696V1.47V1.4704V1.47081V1.47121V1.47161V1.47202V1.47242V1.47282V1.47323V1.47363V1.47403V1.47443V1.47484V1.47524V1.47564V1.47605V1.47645V1.47685V1.47725V1.47766V1.47806V1.47846V1.47887V1.47927V1.47967V1.48007V1.48048V1.48088V1.48128V1.48169V1.48209V1.48249V1.4829V1.4833V1.4837V1.4841V1.48451V1.48491V1.48531V1.48572V1.48612V1.48652V1.48692V1.48733V1.48773V1.48813V1.48854V1.48894V1.48934V1.48975V1.49015V1.49055V1.49095V1.49136V1.49176V1.49216V1.49257V1.49297V1.49337V1.49377V1.49418V1.49458V1.49498V1.49539V1.49579V1.49619V1.4966V1.497V1.4974V1.4978V1.49821V1.49861V1.49901V1.49942V1.49982V1.50022V1.50062V1.50103V1.50143V1.50183V1.50224V1.50264V1.50304V1.50345V1.50385V1.50425V1.50465V1.50506V1.50546V1.50586V1.50627V1.50667V1.50707V1.50747V1.50788V1.50828V1.50868V1.50909V1.50949V1.50989L0.875 1.51029V1.5107V1.5111V1.5115V1.51191V1.51231V1.51271V1.51312V1.51352V1.51392V1.51432V1.51473V1.51513V1.51553V1.51594V1.51634V1.51674V1.51714V1.51755V1.51795V1.51835V1.51876V1.51916V1.51956V1.51997V1.52037V1.52077V1.52117V1.52158V1.52198V1.52238V1.52279V1.52319V1.52359V1.52399V1.5244V1.5248V1.5252V1.52561V1.52601V1.52641V1.52682V1.52722V1.52762V1.52802V1.52843V1.52883V1.52923V1.52964V1.53004V1.53044V1.53084V1.53125V1.53165V1.53205V1.53246V1.53286V1.53326V1.53367V1.53407V1.53447V1.53487V1.53528V1.53568V1.53608V1.53649V1.53689V1.53729V1.53769V1.5381V1.5385V1.5389V1.53931V1.53971V1.58323L0.902034 1.61735C0.918222 1.63777 0.935362 1.66062 0.953546 1.68485C1.00623 1.75506 1.06765 1.83693 1.14 1.90543C2.77669 3.45943 4.41706 5.01012 6.05611 6.55956C6.87513 7.3338 7.69381 8.10773 8.51155 8.88161L8.51155 8.88162L8.5128 8.88278C8.66941 9.02698 8.82791 9.12368 9.00428 9.12499C9.18177 9.1263 9.34108 9.03092 9.49885 8.88161L9.49896 8.88151C11.952 6.55999 14.4052 4.23839 16.8584 1.90916C16.9137 1.86471 16.9589 1.81331 16.9965 1.77065L16.9993 1.76749L16.9994 1.76764L17.0041 1.76168C17.1466 1.57865 17.172 1.33559 17.0327 1.13274C16.9052 0.947101 16.6947 0.830119 16.4476 0.891136L16.4469 0.891294M0.875 1.33341L16.4469 0.891294M16.4469 0.891294C16.2968 0.929186 16.1573 1.02888 16.0607 1.12022L16.4469 0.891294Z" fill="#11589A" stroke="#11589A" stroke-width="0.25"/>
</svg>
