<svg width="21" height="11" viewBox="0 0 21 11" fill="none" xmlns="http://www.w3.org/2000/svg">
<path d="M1 1.45874C1.01918 1.42258 1.04794 1.37738 1.06711 1.34122C1.2301 1.06097 1.60402 0.98865 1.87248 1.18754C1.93959 1.23274 1.98753 1.28698 2.04506 1.34122C4.80631 3.94482 7.57714 6.55745 10.3384 9.16105C10.3863 9.20625 10.4247 9.26049 10.4822 9.31473C10.5589 9.25145 10.6068 9.20625 10.6644 9.15201C13.4352 6.53937 16.206 3.92674 18.9865 1.3141C19.0919 1.21466 19.2358 1.11521 19.3796 1.07905C19.6001 1.02481 19.7918 1.12425 19.9165 1.30506C20.0411 1.48586 20.0219 1.70283 19.8877 1.8746C19.8398 1.92884 19.7918 1.98308 19.7343 2.02828C16.8197 4.78556 13.905 7.5338 10.9904 10.282C10.6356 10.6165 10.3767 10.6075 10.022 10.282C7.10735 7.5338 4.18311 4.78556 1.26845 2.02828C1.16299 1.92884 1.08629 1.81131 1 1.70283C1 1.62147 1 1.54011 1 1.45874Z" fill="#11589A" stroke="#11589A" stroke-width="0.93116"/>
</svg>
