<svg width="47" height="44" viewBox="0 0 47 44" fill="none" xmlns="http://www.w3.org/2000/svg">
<path d="M15.5714 0.857178C11.4619 0.857178 7.73637 1.6898 4.94821 3.12688C2.16005 4.56399 0.142853 6.70802 0.142853 9.35615V34.8033C0.142853 37.4265 2.13785 39.56 4.93214 40.9995C7.72645 42.439 11.4571 43.2857 15.5714 43.2857C19.0294 43.2857 22.2112 42.6769 24.7964 41.629C26.8169 42.6845 29.0983 43.2857 31.5143 43.2857C39.739 43.2857 46.4286 36.3898 46.4286 27.9114C46.4286 19.433 39.739 12.537 31.5143 12.537C31.3375 12.537 31.1592 12.5474 30.9839 12.5536V9.35615C30.9839 6.70802 28.9828 4.56399 26.1946 3.12688C23.4065 1.68986 19.6809 0.857178 15.5714 0.857178ZM15.5714 2.99435C19.4148 2.99435 22.8871 3.81609 25.3107 5.06524C27.7343 6.31445 28.9589 7.90512 28.9589 9.35615C28.4807 11.6077 26.8806 12.8466 25.3107 13.6305C22.8871 14.8797 19.4148 15.7014 15.5714 15.7014C11.728 15.7014 8.25575 14.8797 5.83214 13.6305C4.03679 12.6717 2.40233 11.2102 2.18392 9.35615C2.18392 7.90512 3.40853 6.31445 5.83214 5.06524C8.25575 3.81609 11.728 2.99435 15.5714 2.99435ZM2.2 13.6636C2.9618 14.3872 3.90265 15.0299 4.94821 15.5688C7.73637 17.0059 11.4619 17.8386 15.5714 17.8386C17.3537 17.8386 19.0577 17.6696 20.65 17.3747C19.4369 18.7031 18.4536 20.2576 17.7571 21.9638C17.0457 22.0281 16.3176 22.0798 15.5714 22.0798C11.7339 22.0798 8.26692 21.2555 5.84821 20.0088C3.4295 18.7622 2.2 17.1945 2.2 15.7179V13.6636ZM31.5143 14.6576C38.6273 14.6576 44.3714 20.579 44.3714 27.9114C44.3714 35.2437 38.6273 41.1651 31.5143 41.1651C24.4013 41.1651 18.6571 35.2437 18.6571 27.9114C18.6571 20.579 24.4013 14.6576 31.5143 14.6576ZM32.0446 18.8989C28.1158 18.8989 24.7738 21.578 23.6714 25.2607C23.1729 25.2607 22.6513 25.2607 22.1607 25.2607C21.6221 25.2867 21.1551 25.8155 21.1804 26.3707C21.2056 26.9259 21.7185 27.4074 22.2571 27.3812H23.3179C23.3079 27.5562 23.2857 27.734 23.2857 27.9114C23.2857 28.2685 23.3104 28.6254 23.35 28.9717C22.9584 28.9716 22.5445 28.9717 22.1607 28.9717C21.6221 28.9977 21.1551 29.5265 21.1804 30.0817C21.2056 30.637 21.7185 31.1184 22.2571 31.0923H23.8643C25.1204 34.4923 28.3123 36.924 32.0446 36.924C34.8465 36.924 36.7789 35.6387 38.4089 33.9584C38.8041 33.571 38.8085 32.8505 38.425 32.4508C38.0415 32.0511 37.3426 32.0478 36.9625 32.4508C35.5067 33.9515 34.2872 34.8033 32.0446 34.8033C29.4505 34.8033 27.2128 33.3014 26.0982 31.0923H32.5429C33.0863 31.1003 33.5875 30.5923 33.5875 30.032C33.5875 29.4718 33.0863 28.9638 32.5429 28.9717H25.4232C25.3717 28.6261 25.3429 28.2722 25.3429 27.9114C25.3429 27.734 25.3465 27.5553 25.3589 27.3812H32.5429C33.0863 27.3892 33.5875 26.8812 33.5875 26.3209C33.5875 25.7607 33.0863 25.2528 32.5429 25.2607H25.8571C26.8645 22.7673 29.2493 21.0195 32.0446 21.0195C34.2873 21.0195 35.5068 21.8549 36.9625 23.3555C37.3426 23.7585 38.0415 23.7551 38.425 23.3555C38.8085 22.9558 38.8041 22.2353 38.409 21.8479C36.7789 20.1675 34.8465 18.8989 32.0446 18.8989ZM2.2 20.0254C2.95712 20.7434 3.89213 21.3781 4.93214 21.9141C7.7252 23.3537 11.456 24.2004 15.5714 24.2004C16.0739 24.2004 16.5612 24.1765 17.05 24.1505C16.756 25.3531 16.6 26.6158 16.6 27.9112C16.6 28.0824 16.6107 28.255 16.616 28.4249C16.2711 28.4386 15.9255 28.4413 15.5714 28.4413C11.7339 28.4413 8.26692 27.6171 5.84821 26.3704C3.42953 25.1241 2.2 23.5563 2.2 22.0798V20.0254ZM2.2 26.3872C2.95712 27.1052 3.89213 27.7398 4.93214 28.2759C7.7252 29.7155 11.456 30.5621 15.5714 30.5621C15.9933 30.5621 16.4132 30.5494 16.825 30.5293C17.0692 31.9899 17.5119 33.3815 18.1268 34.6711C17.2973 34.7562 16.4489 34.8036 15.5714 34.8036C11.7339 34.8036 8.26692 33.9794 5.84821 32.7327C3.4295 31.4858 2.2 29.9181 2.2 28.4415V26.3872ZM2.2 32.749C2.95712 33.467 3.89213 34.1016 4.93214 34.6377C7.7252 36.0773 11.456 36.924 15.5714 36.924C16.8523 36.924 18.096 36.849 19.2839 36.692C20.1877 38.0273 21.2875 39.1908 22.5464 40.1711C20.518 40.7858 18.1298 41.1651 15.5714 41.1651C11.7352 41.1651 8.2684 40.341 5.84821 39.0942C3.42802 37.8475 2.2 36.2793 2.2 34.8033V32.749Z" fill="#11589A" stroke="#11589A" stroke-width="0.225"/>
</svg>
