<svg width="66" height="65" viewBox="0 0 66 65" fill="none" xmlns="http://www.w3.org/2000/svg">
<g clip-path="url(#clip0)">
<path d="M63.3984 26.8506H36.8906C35.7226 26.8506 34.7704 27.8027 34.7704 28.9707V37.4385C34.7704 38.6064 35.7226 39.5586 36.8906 39.5586H51.8202C50.1825 43.7988 47.1357 47.3535 43.2382 49.6133L49.5986 60.6328C59.8056 54.7295 65.8486 44.3574 65.8486 32.7666C65.8486 31.1162 65.7216 29.9355 65.4804 28.6025C65.3027 27.5869 64.4267 26.8506 63.3984 26.8506Z" fill="#167EE6"/>
<path d="M33.3484 52.2793C26.0359 52.2793 19.6628 48.293 16.2351 42.377L5.21558 48.7246C10.8269 58.4492 21.3259 65 33.3484 65C39.239 65 44.8123 63.4131 49.5984 60.6455V60.6328L43.238 49.6133C40.3181 51.3018 36.9539 52.2793 33.3484 52.2793Z" fill="#12B347"/>
<path d="M49.5985 60.6455V60.6328L43.2382 49.6133C40.3309 51.3018 36.954 52.2793 33.3485 52.2793V65C39.2391 65 44.8124 63.4131 49.5985 60.6455Z" fill="#0F993E"/>
<path d="M13.5692 32.5C13.5692 28.8945 14.5468 25.5303 16.2352 22.623L5.2157 16.2754C2.43543 21.0361 0.848511 26.584 0.848511 32.5C0.848511 38.416 2.43543 43.9639 5.2157 48.7373L16.2352 42.3896C14.5468 39.4697 13.5692 36.1055 13.5692 32.5Z" fill="#FFD500"/>
<path d="M33.3484 12.7207C38.1091 12.7207 42.489 14.4092 45.9041 17.2275C46.7419 17.9258 47.9734 17.875 48.7478 17.1006L54.7527 11.0957C55.6287 10.2197 55.5652 8.78516 54.6257 7.97266C48.9002 3.00879 41.448 0 33.3484 0C21.3259 0 10.8269 6.55078 5.21558 16.2627L16.2351 22.6104C19.6628 16.707 26.0359 12.7207 33.3484 12.7207Z" fill="#FF4B26"/>
<path d="M45.9042 17.2275C46.7421 17.9258 47.9735 17.875 48.7479 17.1006L54.7528 11.0957C55.6288 10.2197 55.5653 8.78516 54.6259 7.97266C48.9003 3.00879 41.4481 0 33.3485 0V12.7207C38.1093 12.7207 42.4891 14.4092 45.9042 17.2275Z" fill="#D93F21"/>
</g>
<defs>
<clipPath id="clip0">
<rect width="65" height="65" fill="white" transform="translate(0.848511)"/>
</clipPath>
</defs>
</svg>
