<svg width="25" height="26" viewBox="0 0 25 26" fill="none" xmlns="http://www.w3.org/2000/svg">
<path d="M21.4689 3.82453C19.4103 1.74654 16.6742 0.608276 13.7605 0.608276C10.8468 0.608276 8.1107 1.74654 6.05205 3.82453C2.2636 7.62977 1.84923 13.5726 4.81554 17.8477L0.448297 22.2419C0.224673 22.4669 0.224673 22.8375 0.448297 23.0691L2.3491 24.9817C2.46091 25.0942 2.61219 25.1537 2.75688 25.1537C2.90816 25.1537 3.05286 25.0942 3.16467 24.9817L7.53191 20.5874C9.34721 21.8647 11.5045 22.5529 13.7605 22.5529C16.6742 22.5529 19.4103 21.4147 21.4689 19.3367C25.7178 15.0616 25.7178 8.09964 21.4689 3.82453ZM20.1075 17.9668C18.4106 19.6742 16.1612 20.6139 13.7605 20.6139C11.3664 20.6139 9.11043 19.6742 7.41352 17.9668C3.91447 14.4461 3.91447 8.71509 7.41352 5.19442C9.11043 3.48702 11.3598 2.54729 13.7605 2.54729C16.1546 2.54729 18.4106 3.48702 20.1075 5.19442C23.6065 8.71509 23.6065 14.4461 20.1075 17.9668Z" fill="white"/>
<path d="M18.6142 10.065L18.2525 7.54363C18.0091 5.88256 15.7334 5.29358 13.859 5.29358C11.9845 5.29358 9.70218 5.88256 9.4654 7.54363L9.10366 10.065C8.18285 10.515 7.54486 11.4481 7.55144 12.5268C7.55802 13.3011 7.88688 13.996 8.41963 14.4923L8.43278 16.5108C8.43278 16.61 8.50513 16.6894 8.59064 16.6894L10.3862 16.6828C10.4717 16.6828 10.5441 16.6034 10.5441 16.5041L10.5375 15.2534L13.8655 15.2335L17.2002 15.2534L17.1936 16.5041C17.1936 16.6034 17.2594 16.6828 17.3514 16.6828L19.147 16.6894C19.2325 16.6894 19.3049 16.61 19.3049 16.5108L19.318 14.4857C19.8442 13.9894 20.1796 13.2945 20.1862 12.5268C20.1665 11.4481 19.5351 10.515 18.6142 10.065ZM9.82714 13.5261C9.25493 13.5261 8.79453 13.0695 8.78795 12.4938C8.78795 11.918 9.24178 11.4548 9.81399 11.4481C10.3862 11.4481 10.8466 11.9048 10.8532 12.4805C10.8532 13.0563 10.3928 13.5261 9.82714 13.5261ZM10.5243 9.78045L10.8203 7.74878C10.9058 7.17304 12.2936 6.68332 13.8524 6.68332C15.4112 6.68332 16.7989 7.17304 16.8845 7.74878L17.1804 9.78045C17.1804 9.78045 14.4377 9.76722 13.8524 9.7606C13.267 9.76722 10.5243 9.78045 10.5243 9.78045ZM17.8776 13.5261C17.3054 13.5261 16.8516 13.0563 16.8516 12.4805C16.8516 11.9048 17.3185 11.4481 17.8908 11.4481C18.463 11.4481 18.9168 11.918 18.9168 12.4938C18.9102 13.0695 18.4498 13.5327 17.8776 13.5261Z" fill="white"/>
</svg>
