<svg width="30" height="30" viewBox="0 0 30 30" fill="none" xmlns="http://www.w3.org/2000/svg">
<g clip-path="url(#clip0)">
<path d="M19.7024 0C14.0238 0 9.40476 4.54687 9.40476 10.1367C9.40476 11.3789 9.63095 12.5859 10.0714 13.7344L0.220238 23.4316C0.077381 23.5723 0 23.7598 0 23.9531V29.2559C0 29.666 0.333333 29.9941 0.75 29.9941H5.19048C5.38691 29.9941 5.57738 29.918 5.72024 29.7773L7.21429 28.3066C7.35714 28.166 7.43453 27.9785 7.43453 27.7852V25.9746H9.26786C9.68453 25.9746 10.0179 25.6465 10.0179 25.2363V24.5098H10.756C11.1726 24.5098 11.506 24.1816 11.506 23.7715V22.1836H13.1191C13.3155 22.1836 13.5119 22.1074 13.6488 21.9668L16.0357 19.6172C17.2024 20.0508 18.4286 20.2734 19.6905 20.2734C25.3691 20.2734 29.9881 15.7266 29.9881 10.1367C30 4.54687 25.381 0 19.7024 0ZM19.7024 18.8027C18.4762 18.8027 17.2857 18.5566 16.1726 18.0762C15.8869 17.9531 15.5595 18.0176 15.3452 18.2227L15.3393 18.2285L12.8155 20.7129H10.7619C10.3452 20.7129 10.0119 21.041 10.0119 21.4512V23.0391H9.27381C8.85714 23.0391 8.52381 23.3672 8.52381 23.7773V24.5039H6.69048C6.27381 24.5039 5.94048 24.832 5.94048 25.2422V27.4863L4.88095 28.5234H1.5V27.4805L10.6726 18.4512C10.9345 18.1934 10.9345 17.7715 10.6726 17.5078C10.4107 17.2441 9.98214 17.25 9.71429 17.5078L1.5 25.5996V24.2637L11.4821 14.4375L11.4881 14.4316C11.6964 14.2207 11.7679 13.9043 11.6369 13.6172C11.1488 12.5215 10.8988 11.3496 10.8988 10.1426C10.8988 5.36719 14.8452 1.48242 19.6964 1.48242C24.5476 1.48242 28.4941 5.36719 28.4941 10.1426C28.5 14.918 24.5536 18.8027 19.7024 18.8027Z" fill="#11589A" stroke="#11589A" stroke-width="0.825"/>
<path d="M22.8388 4.2832C21.2912 4.2832 20.0293 5.52539 20.0293 7.04883C20.0293 8.57227 21.2912 9.81445 22.8388 9.81445C24.3864 9.81445 25.6483 8.57227 25.6483 7.04883C25.6483 5.52539 24.3864 4.2832 22.8388 4.2832ZM22.8388 8.34375C22.1186 8.34375 21.5293 7.76367 21.5293 7.05469C21.5293 6.3457 22.1186 5.76562 22.8388 5.76562C23.5591 5.76562 24.1483 6.3457 24.1483 7.05469C24.1483 7.76367 23.5591 8.34375 22.8388 8.34375Z" fill="#11589A" stroke="#11589A" stroke-width="0.825"/>
</g>
<defs>
<clipPath id="clip0">
<rect width="30" height="30" fill="white"/>
</clipPath>
</defs>
</svg>
