<svg width="39" height="54" viewBox="0 0 39 54" fill="none" xmlns="http://www.w3.org/2000/svg">
<path d="M19.5 54C20.0105 54 20.4188 53.7989 20.7251 53.3966C21.4398 52.4916 39 36 39 19.0056C38.8979 8.54749 30.2199 0 19.5 0C8.7801 0 0 8.54749 0 19.0056C0 36 17.5602 52.4916 18.2749 53.3966C18.5812 53.7989 18.9895 54 19.5 54Z" fill="#F29400"/>
<path d="M27.4689 11.8245C25.4103 9.74654 22.6742 8.60828 19.7605 8.60828C16.8468 8.60828 14.1107 9.74654 12.052 11.8245C8.2636 15.6298 7.84923 21.5726 10.8155 25.8477L6.4483 30.2419C6.22467 30.4669 6.22467 30.8375 6.4483 31.0691L8.3491 32.9817C8.46091 33.0942 8.61219 33.1537 8.75688 33.1537C8.90816 33.1537 9.05286 33.0942 9.16467 32.9817L13.5319 28.5874C15.3472 29.8647 17.5045 30.5529 19.7605 30.5529C22.6742 30.5529 25.4103 29.4147 27.4689 27.3367C31.7178 23.0616 31.7178 16.0996 27.4689 11.8245ZM26.1075 25.9668C24.4106 27.6742 22.1612 28.6139 19.7605 28.6139C17.3664 28.6139 15.1104 27.6742 13.4135 25.9668C9.91447 22.4461 9.91447 16.7151 13.4135 13.1944C15.1104 11.487 17.3598 10.5473 19.7605 10.5473C22.1546 10.5473 24.4106 11.487 26.1075 13.1944C29.6065 16.7151 29.6065 22.4461 26.1075 25.9668Z" fill="white"/>
<path d="M24.6142 18.065L24.2525 15.5436C24.0091 13.8826 21.7334 13.2936 19.859 13.2936C17.9845 13.2936 15.7022 13.8826 15.4654 15.5436L15.1037 18.065C14.1829 18.515 13.5449 19.4481 13.5514 20.5268C13.558 21.3011 13.8869 21.996 14.4196 22.4923L14.4328 24.5108C14.4328 24.61 14.5051 24.6894 14.5906 24.6894L16.3862 24.6828C16.4717 24.6828 16.5441 24.6034 16.5441 24.5041L16.5375 23.2534L19.8655 23.2335L23.2002 23.2534L23.1936 24.5041C23.1936 24.6034 23.2594 24.6828 23.3514 24.6828L25.147 24.6894C25.2325 24.6894 25.3049 24.61 25.3049 24.5108L25.318 22.4857C25.8442 21.9894 26.1796 21.2945 26.1862 20.5268C26.1665 19.4481 25.5351 18.515 24.6142 18.065ZM15.8271 21.5261C15.2549 21.5261 14.7945 21.0695 14.788 20.4938C14.788 19.918 15.2418 19.4548 15.814 19.4481C16.3862 19.4481 16.8466 19.9048 16.8532 20.4805C16.8532 21.0563 16.3928 21.5261 15.8271 21.5261ZM16.5243 17.7805L16.8203 15.7488C16.9058 15.173 18.2936 14.6833 19.8524 14.6833C21.4112 14.6833 22.7989 15.173 22.8845 15.7488L23.1804 17.7805C23.1804 17.7805 20.4377 17.7672 19.8524 17.7606C19.267 17.7672 16.5243 17.7805 16.5243 17.7805ZM23.8776 21.5261C23.3054 21.5261 22.8516 21.0563 22.8516 20.4805C22.8516 19.9048 23.3185 19.4481 23.8908 19.4481C24.463 19.4481 24.9168 19.918 24.9168 20.4938C24.9102 21.0695 24.4498 21.5327 23.8776 21.5261Z" fill="white"/>
</svg>
