<svg width="19" height="19" viewBox="0 0 19 19" fill="none" xmlns="http://www.w3.org/2000/svg">
<g clip-path="url(#clip0)">
<path d="M7.74935 2.31119H8.27206C9.62105 2.37935 10.888 2.98556 11.7941 3.99645C12.7002 5.00734 13.1713 6.34012 13.1038 7.70157C13.0362 9.06303 12.4356 10.3416 11.434 11.2561C10.4323 12.1706 9.11175 12.6461 7.76276 12.5779H7.24005C5.89106 12.5098 4.62415 11.9036 3.71802 10.8927C2.8119 9.88179 2.34079 8.54901 2.40832 7.18756C2.47586 5.8261 3.07652 4.54749 4.07816 3.63299C5.07979 2.71849 6.40036 2.24303 7.74935 2.31119ZM7.74935 0.0116527C5.79429 -0.0870035 3.88048 0.602202 2.42892 1.92765C0.977364 3.2531 0.106971 5.10622 0.0092177 7.07935C-0.0885352 9.05247 0.59436 10.984 1.90767 12.4489C3.22099 13.9139 5.05714 14.7923 7.0122 14.891H7.76276C9.71781 14.9897 11.6316 14.3005 13.0832 12.975C14.5347 11.6496 15.4051 9.79644 15.5029 7.82331C15.6006 5.85019 14.9178 3.91869 13.6044 2.45372C12.2911 0.988745 10.455 0.110309 8.49991 0.0116527H7.74935Z" fill="#F29400"/>
<path d="M12.9765 10.6303L11.0867 12.5376L16.488 18.0023L18.3912 16.0951L12.9765 10.6303Z" fill="#F29400"/>
</g>
<defs>
<clipPath id="clip0">
<rect width="18.3912" height="18" fill="white" transform="translate(0 0.00234985)"/>
</clipPath>
</defs>
</svg>
