<svg width="22" height="22" viewBox="0 0 22 22" fill="none" xmlns="http://www.w3.org/2000/svg">
<g clip-path="url(#clip0)">
<path d="M4.45497 1.17354C4.4706 1.18919 4.4706 1.20484 4.4706 1.20484C5.25241 2.66003 6.04985 4.17781 6.92547 5.86771C6.95674 5.94595 6.98801 5.97724 6.86293 6.11806C6.59711 6.41536 6.30003 6.71266 5.9873 7.00996L5.84658 7.15078C5.28368 7.69843 5.12732 8.41821 5.44004 9.09104C5.50258 9.21622 5.54949 9.34139 5.61204 9.46657C5.81531 9.92034 6.01858 10.3898 6.3313 10.8279C6.80038 11.532 7.33201 12.2048 7.92618 12.862C8.73926 13.7539 9.84942 14.8805 11.241 15.7568C11.8665 16.1479 12.4919 16.5235 13.2737 16.6956C13.3988 16.7269 13.5239 16.7425 13.649 16.7425C13.9617 16.7425 14.4308 16.6486 14.853 16.2262C15.2595 15.8037 15.6348 15.4282 15.9944 15.0683C16.0882 14.9744 16.1977 14.9275 16.2915 14.9275C16.3697 14.9275 16.4479 14.9587 16.526 15.0057C17.9646 15.8506 19.3718 16.6956 20.7634 17.5249C20.8103 17.5562 20.8416 17.5718 20.8729 17.6031C20.8572 17.6188 20.826 17.6501 20.8103 17.6657C20.482 17.9943 20.1693 18.3073 19.8409 18.6358C19.1998 19.2617 18.5431 19.9189 17.902 20.5761C17.6362 20.8421 17.3391 20.9516 16.9169 20.9516C16.87 20.9516 16.8231 20.9516 16.7762 20.9516C15.2908 20.8734 13.8054 20.3883 11.9759 19.3869C9.83379 18.229 7.80109 16.5391 5.56513 14.0825C4.03279 12.4082 2.84445 10.6245 2.0001 8.76245C1.46847 7.57326 1.0932 6.08677 1.0932 5.05405V5.03841V5.02276C1.07757 4.69417 1.23393 4.38122 1.53101 4.08393C2.17209 3.45804 2.82881 2.80085 3.43862 2.17496C3.78261 1.84637 4.11097 1.50213 4.45497 1.17354ZM4.50187 0C4.23606 0 3.93897 0.140825 3.67316 0.391181C2.70372 1.36131 1.74992 2.34708 0.764844 3.30156C0.233217 3.81792 -0.0169608 4.42816 -0.00132473 5.05405C-0.00132473 6.27454 0.42085 7.93314 0.999386 9.21622C1.93755 11.2816 3.20408 13.1124 4.72078 14.7866C6.69093 16.9459 8.83308 18.9018 11.413 20.3101C13.0548 21.202 14.7748 21.8905 16.6824 22C16.7449 22 16.8231 22 16.8857 22C17.558 22 18.1522 21.7966 18.6525 21.2959C19.622 20.3257 20.5914 19.3713 21.5609 18.4011C21.639 18.3229 21.7172 18.2447 21.7798 18.1664C22.0925 17.7596 22.0769 17.2432 21.7329 16.8677C21.6078 16.7425 21.467 16.633 21.3107 16.5391C19.9034 15.6942 18.4806 14.8649 17.0577 14.0199C16.8075 13.8634 16.526 13.8009 16.2759 13.8009C15.885 13.8009 15.5097 13.9573 15.197 14.2703C14.8217 14.6614 14.4308 15.0526 14.0555 15.4282C13.9304 15.5533 13.8054 15.6159 13.6334 15.6159C13.5865 15.6159 13.5395 15.6159 13.4926 15.6003C12.8672 15.4595 12.3356 15.1465 11.8196 14.8023C10.6469 14.0669 9.66179 13.0967 8.72362 12.0797C8.17636 11.4851 7.676 10.8435 7.22256 10.1707C6.8942 9.68563 6.67529 9.12233 6.42511 8.59033C6.30003 8.32432 6.39384 8.10526 6.59711 7.90185C6.97238 7.54196 7.34764 7.18208 7.676 6.80654C8.05127 6.36842 8.16072 5.86771 7.89491 5.3357C7.08183 3.77098 6.26875 2.22191 5.4244 0.672831C5.33059 0.485064 5.15859 0.312945 4.98659 0.172119C4.84587 0.0625889 4.67387 0 4.50187 0Z" fill="white"/>
</g>
<defs>
<clipPath id="clip0">
<rect width="22" height="22" fill="white"/>
</clipPath>
</defs>
</svg>
