<svg width="23" height="22" viewBox="0 0 23 22" fill="none" xmlns="http://www.w3.org/2000/svg">
<g clip-path="url(#clip0)">
<path d="M11.5308 0C5.46357 0 0.530762 4.93281 0.530762 11C0.530762 17.0672 5.46357 22 11.5308 22C17.5979 22 22.5308 17.0672 22.5308 11C22.5308 4.93281 17.5979 0 11.5308 0ZM15.5827 13.7543C15.9394 14.1109 15.9394 14.691 15.5827 15.052C15.4022 15.2324 15.1702 15.3227 14.9339 15.3227C14.6976 15.3227 14.4655 15.2324 14.2851 15.052L11.5308 12.2977L8.77646 15.052C8.596 15.2324 8.36397 15.3227 8.12764 15.3227C7.89131 15.3227 7.65928 15.2324 7.47881 15.052C7.12217 14.6953 7.12217 14.1152 7.47881 13.7543L10.2331 11L7.47881 8.2457C7.12217 7.88906 7.12217 7.30898 7.47881 6.94805C7.83545 6.59141 8.41553 6.59141 8.77646 6.94805L11.5308 9.70234L14.2851 6.94805C14.6417 6.59141 15.2218 6.59141 15.5827 6.94805C15.9394 7.30469 15.9394 7.88477 15.5827 8.2457L12.8284 11L15.5827 13.7543Z" fill="#C4C4C4"/>
</g>
<defs>
<clipPath id="clip0">
<rect width="22" height="22" fill="white" transform="translate(0.530762)"/>
</clipPath>
</defs>
</svg>
