<svg width="30" height="30" viewBox="0 0 30 30" fill="none" xmlns="http://www.w3.org/2000/svg">
<g clip-path="url(#clip0)">
<path d="M29.6538 28.002L21.1929 19.5352C25.0483 14.8418 24.7847 7.88086 20.4019 3.49805C15.7378 -1.16602 8.15576 -1.16602 3.4917 3.49805C-1.17236 8.16211 -1.17236 15.7441 3.4917 20.4082C7.87451 24.791 14.8354 25.0547 19.5288 21.1992L27.9956 29.666C28.4526 30.123 29.1968 30.123 29.6538 29.666C30.1167 29.1973 30.1167 28.459 29.6538 28.002ZM18.7437 18.7441C14.9937 22.4941 8.8999 22.4941 5.1499 18.7441C1.3999 14.9941 1.3999 8.90039 5.1499 5.15039C8.8999 1.40039 14.9937 1.40039 18.7437 5.15039C22.4937 8.90039 22.4937 15 18.7437 18.7441Z" fill="#11589A"/>
<path d="M17.6895 10.7754H13.125V6.21094C13.125 5.56641 12.5977 5.03906 11.9531 5.03906C11.3086 5.03906 10.7813 5.56641 10.7813 6.21094V10.7754H6.21094C5.56641 10.7754 5.03906 11.3027 5.03906 11.9473C5.03906 12.5918 5.56641 13.1191 6.21094 13.1191H10.7754V17.6836C10.7754 18.3281 11.3027 18.8555 11.9473 18.8555C12.5918 18.8555 13.1191 18.3281 13.1191 17.6836V13.125H17.6836C18.3281 13.125 18.8555 12.5977 18.8555 11.9531C18.8555 11.3086 18.334 10.7754 17.6895 10.7754Z" fill="#11589A"/>
</g>
<defs>
<clipPath id="clip0">
<rect width="30" height="30" fill="white"/>
</clipPath>
</defs>
</svg>
