<svg width="13" height="7" viewBox="0 0 13 7" fill="none" xmlns="http://www.w3.org/2000/svg">
<path d="M0 0.646093C0.01312 0.621351 0.0327999 0.590424 0.0459199 0.565682C0.15744 0.373934 0.413279 0.32445 0.596959 0.46053C0.642879 0.491457 0.675678 0.52857 0.715038 0.565682C2.60431 2.34709 4.50015 4.13468 6.38943 5.91609C6.42223 5.94702 6.44847 5.98413 6.48783 6.02124C6.54031 5.97795 6.57311 5.94702 6.61247 5.90991C8.5083 4.12231 10.4041 2.33472 12.3065 0.547126C12.3787 0.479086 12.4771 0.411046 12.5755 0.386305C12.7264 0.349192 12.8576 0.417232 12.9429 0.540941C13.0281 0.66465 13.015 0.8131 12.9232 0.930624C12.8904 0.967736 12.8576 1.00485 12.8182 1.03578C10.824 2.92234 8.82974 4.80271 6.83551 6.68309C6.59279 6.91195 6.41567 6.90576 6.17295 6.68309C4.17871 4.80271 2.17792 2.92234 0.18368 1.03578C0.11152 0.967736 0.0590399 0.887326 0 0.8131C0 0.757431 0 0.701762 0 0.646093Z" fill="#C4C4C4"/>
</svg>
