<svg width="82" height="28" viewBox="0 0 82 28" fill="none" xmlns="http://www.w3.org/2000/svg">
<g clip-path="url(#clip0)">
<path d="M67.7655 28C64.409 28 61.3075 26.8299 58.8433 24.9075C56.5065 26.7463 53.6173 27.8746 50.3883 28C46.8619 28.1254 43.5479 26.9552 40.9987 24.9075C38.6619 26.7463 35.7728 27.8746 32.5438 28C29.0173 28.1254 25.7034 26.9552 23.1541 24.9075C20.8173 26.7463 17.9282 27.8746 14.6992 28C6.83911 28.2507 0.253615 22.191 -0.00130723 14.4597C-0.25623 6.72836 5.90439 0.250746 13.7645 0H13.807H14.6992C17.8857 0.125373 20.8173 1.25373 23.1541 3.09254C25.4909 1.25373 28.38 0.125373 31.6091 0H31.6515H32.5438C35.7303 0.125373 38.6619 1.25373 40.9987 3.09254C43.3355 1.25373 46.2246 0.125373 49.4536 0H49.4961H50.3883C53.5749 0.125373 56.5065 1.25373 58.8433 3.09254C61.18 1.25373 64.0692 0.125373 67.2982 0H67.3407H68.2329C75.7106 0.250746 81.7438 6.18508 81.9987 13.5403C82.2536 21.2716 76.093 27.7493 68.2329 28C68.0629 28 67.9355 28 67.7655 28ZM43.123 22.8179C45.1199 24.3224 47.6267 25.1582 50.3034 25.0746C52.7251 24.991 54.9344 24.1552 56.7189 22.8179C54.807 20.5194 53.6598 17.6358 53.5324 14.4597C53.4049 10.9493 54.637 7.68955 56.7189 5.18209C54.9344 3.84478 52.7251 3.00896 50.3034 2.92537H49.4961C47.0743 3.00896 44.865 3.84478 43.0806 5.18209C44.9925 7.4806 46.1396 10.3642 46.2671 13.5403C46.437 17.0507 45.2049 20.2687 43.123 22.8179ZM25.2785 22.8179C27.2754 24.3224 29.7821 25.1582 32.4588 25.0746C34.8806 24.991 37.0899 24.1552 38.8743 22.8179C36.9624 20.5194 35.8153 17.6358 35.6878 14.4597C35.5603 10.9493 36.7925 7.68955 38.8743 5.18209C37.0899 3.84478 34.8806 3.00896 32.4588 2.92537H31.6515C29.2298 3.00896 27.0205 3.84478 25.236 5.18209C27.1479 7.4806 28.2951 10.3642 28.4225 13.5403C28.5925 17.0507 27.3603 20.2687 25.2785 22.8179ZM13.8495 2.92537C7.64636 3.13433 2.76035 8.27463 2.97279 14.3761C3.18522 20.4776 8.41113 25.2418 14.6142 25.0746C17.036 24.991 19.2453 24.1552 21.0298 22.8179C19.1179 20.5194 17.9707 17.6358 17.8433 14.4597C17.7158 10.9493 18.9479 7.68955 21.0298 5.18209C19.2453 3.84478 17.036 3.00896 14.6142 2.92537H13.8495ZM60.9676 22.8179C62.9645 24.3224 65.4712 25.1582 68.1479 25.0746C74.351 24.8657 79.237 19.7254 79.0246 13.6239C78.8122 7.81493 74.0536 3.13433 68.1479 2.92537H67.3407C64.9189 3.00896 62.7096 3.84478 60.9251 5.18209C62.837 7.4806 63.9842 10.3642 64.1116 13.5403C64.2816 17.0507 63.0495 20.2687 60.9676 22.8179ZM23.1541 7.22985C21.6246 9.19403 20.7324 11.6597 20.8173 14.3343C20.9023 16.7582 21.7521 18.9313 23.1541 20.7284C24.6837 18.7642 25.5759 16.2985 25.4909 13.6239C25.4059 11.2418 24.5562 9.02687 23.1541 7.22985ZM40.9987 7.22985C39.4692 9.19403 38.5769 11.6597 38.6619 14.3343C38.7469 16.7582 39.5966 18.9313 40.9987 20.7284C42.5282 18.7642 43.4204 16.2985 43.3355 13.6239C43.2505 11.2418 42.4008 9.02687 40.9987 7.22985ZM58.8433 7.22985C57.3137 9.19403 56.4215 11.6597 56.5065 14.3343C56.5914 16.7582 57.4412 18.9313 58.8433 20.7284C60.3728 18.7642 61.265 16.2985 61.18 13.6239C61.0951 11.2418 60.2453 9.02687 58.8433 7.22985Z" fill="black"/>
</g>
<defs>
<clipPath id="clip0">
<rect width="82" height="28" fill="white"/>
</clipPath>
</defs>
</svg>
