<svg width="50" height="44" viewBox="0 0 50 44" fill="none" xmlns="http://www.w3.org/2000/svg">
<path d="M12.9934 34.2556C16.5153 37.3906 20.3574 40.1956 24.1996 42.8357C24.6798 43.1657 25.3202 43.1657 25.9605 42.8357C26.6009 42.5057 40.0483 33.7606 46.9322 23.8605C50.7743 18.2505 50.9344 11.3205 47.2523 6.37042C45.3313 3.89541 42.7699 2.0804 39.8883 1.42039C37.9672 1.09039 37.9672 1.09039 36.0461 0.925389C31.7237 1.09039 27.7215 3.2354 25.3202 6.86543C25.1601 7.03043 25.1601 7.19543 25 7.19543C24.8399 7.03043 24.8399 6.86543 24.6798 6.86543C22.2785 3.2354 18.2763 0.925389 13.9539 0.925389C9.6315 0.760388 5.4692 2.9054 2.74769 6.37042C-0.934348 11.3205 -0.77426 18.2505 3.06787 23.8605C5.14902 26.8306 7.55035 29.6356 10.2719 32.1106L12.9934 34.2556Z" fill="#11589A"/>
</svg>
