<svg width="38" height="42" viewBox="0 0 38 42" fill="none" xmlns="http://www.w3.org/2000/svg">
<g clip-path="url(#clip0)">
<path fill-rule="evenodd" clip-rule="evenodd" d="M18.1488 41.601C12.8358 39.1123 8.22122 35.0336 5.1545 30.1179C2.09519 25.2165 0.487405 19.5397 0.094046 12.2513C-0.0312362 9.9261 -0.0312362 7.02566 0.0933725 3.38587L0.149952 1.7247L1.77795 1.44998C7.50658 0.487465 13.3012 -0.000915527 19.0002 -0.000915527C24.6992 -0.000915527 30.4932 0.487465 36.2211 1.44998L37.8491 1.7247L37.9064 3.38587C38.0317 7.02634 38.0317 9.92678 37.9057 12.2513C37.5117 19.5397 35.9046 25.2165 32.8452 30.1179C29.7792 35.0336 25.1633 39.1123 19.8509 41.601L19.0002 41.9992L18.1488 41.601Z" fill="black"/>
<path fill-rule="evenodd" clip-rule="evenodd" d="M19.0001 1.19751C13.2548 1.19751 7.29125 1.6898 1.23847 2.73809C1.14811 5.17297 1.04511 8.93656 1.21814 12.1303C1.6035 19.2509 3.1656 24.7777 6.13424 29.5237C9.09397 34.2559 13.6775 38.3249 19.0001 40.7414C24.3226 38.3249 28.9057 34.2559 31.8654 29.5237C34.8345 24.7777 36.3961 19.2509 36.7818 12.1303C36.9541 8.93656 36.8516 5.17297 36.7612 2.73809C30.7084 1.6898 24.7453 1.19751 19.0001 1.19751ZM19.0001 1.88349C24.6634 1.88349 30.4139 2.36678 36.0992 3.32062C36.224 6.93285 36.2239 9.80692 36.0999 12.0932C35.721 19.0925 34.1922 24.5156 31.2876 29.159C28.3834 33.802 24.028 37.6373 19.0001 39.9871C13.9717 37.6373 9.61677 33.802 6.71255 29.159C3.80793 24.5156 2.27868 19.0925 1.90021 12.0932C1.77621 9.80692 1.77614 6.93285 1.90095 3.32062C7.58619 2.36678 13.3363 1.88349 19.0001 1.88349Z" fill="white"/>
<path fill-rule="evenodd" clip-rule="evenodd" d="M7.11763 5.15075C7.06187 5.14937 7.00247 5.152 6.93966 5.15852C6.09842 5.24686 5.2584 5.3441 4.41919 5.45076V7.94669C4.56466 7.92796 4.71057 7.91004 4.85604 7.89212V7.11989C5.54978 7.0344 6.24471 6.95538 6.93966 6.88251C7.44213 6.83 7.72296 6.6188 7.72296 6.09608V5.81356C7.72296 5.36651 7.508 5.16038 7.11763 5.15075ZM7.06939 5.54762C7.18245 5.53582 7.29591 5.62218 7.29591 5.73657V6.24213C7.29591 6.35082 7.18245 6.45473 7.06939 6.46695C6.33108 6.54308 5.59314 6.62696 4.85604 6.71733V5.79846C5.59314 5.70767 6.33108 5.62416 7.06939 5.54762Z" fill="white"/>
<path fill-rule="evenodd" clip-rule="evenodd" d="M18.1939 4.53175C18.9805 4.52605 19.767 4.5289 20.5531 4.53948V4.9417C19.7127 4.93071 18.8719 4.92827 18.031 4.93519C17.9172 4.93641 17.8033 5.03534 17.8033 5.14973V6.40035C17.8033 6.51475 17.9172 6.62792 18.031 6.6267C18.7852 6.62019 19.5389 6.62141 20.293 6.62996V5.95539C19.8553 5.95051 19.4177 5.94807 18.9805 5.94847V5.54584C19.5608 5.54584 20.141 5.55032 20.7213 5.55887V7.03788C19.906 7.02566 19.0907 7.02241 18.2754 7.02729C17.6785 7.03137 17.375 6.92796 17.375 6.3458V5.25803C17.375 4.71454 17.6461 4.53583 18.1939 4.53175V4.53175Z" fill="white"/>
<path fill-rule="evenodd" clip-rule="evenodd" d="M26.7124 4.79273C26.2422 4.79408 26.0308 4.94348 26.0308 5.43327V6.54782C26.0308 7.14097 26.3342 7.25673 26.9298 7.29703C27.4769 7.33449 28.0231 7.37592 28.5698 7.4211C29.1594 7.46996 29.4678 7.36895 29.4678 6.80837V5.69382C29.4678 5.12266 29.1108 4.96996 28.5698 4.92518C28.0231 4.87958 27.4769 4.83852 26.9298 4.80066C26.852 4.79536 26.7796 4.79254 26.7124 4.79273ZM26.6864 5.18692C27.396 5.23374 28.1046 5.28752 28.8134 5.34777C28.9268 5.35754 29.0403 5.46534 29.0403 5.59561V6.83049C29.0403 6.94448 28.9268 7.04909 28.8134 7.03932C28.1046 6.97907 27.396 6.92525 26.6864 6.87803C26.5563 6.86907 26.4586 6.74907 26.4586 6.63467V5.40024C26.4586 5.26956 26.5563 5.17797 26.6864 5.18692Z" fill="white"/>
<path fill-rule="evenodd" clip-rule="evenodd" d="M16.3018 4.56036V6.36587C16.3018 6.93703 16.0031 7.06242 15.4014 7.08114C14.8774 7.09743 14.3535 7.11697 13.8295 7.14058C13.2711 7.16582 12.9299 7.05916 12.9299 6.4937V4.68819L13.3578 4.66621V6.54784C13.3578 6.66224 13.4555 6.75546 13.5852 6.74936C14.272 6.7172 14.9585 6.69114 15.6453 6.67119C15.7758 6.66752 15.8625 6.56738 15.8625 6.45299V4.57136C16.0088 4.56728 16.1551 4.56362 16.3018 4.56037V4.56036Z" fill="white"/>
<path fill-rule="evenodd" clip-rule="evenodd" d="M21.7925 4.56262C22.8477 4.58786 23.9025 4.62776 24.9572 4.68231V5.08453C24.0455 5.03771 23.1334 5.00148 22.2208 4.97624V5.59056C23.0325 5.61335 23.8437 5.64429 24.6546 5.68378V6.08641C23.8437 6.04692 23.0325 6.01557 22.2208 5.99318V6.66734C23.1334 6.69258 24.0455 6.72882 24.9572 6.77604V7.17826C23.9025 7.12411 22.8477 7.08422 21.7925 7.05857V4.56262Z" fill="white"/>
<path fill-rule="evenodd" clip-rule="evenodd" d="M11.8564 4.74951V5.15173C10.9451 5.20832 10.0342 5.27549 9.12404 5.35324V5.96797C9.93367 5.89836 10.7437 5.8377 11.5541 5.78559V6.18821C10.7437 6.24032 9.93367 6.30098 9.12404 6.37019V7.04476C10.0342 6.96659 10.9451 6.89942 11.8564 6.84324V7.24546C10.8025 7.31059 9.7493 7.39039 8.69653 7.48443V4.98807C9.7493 4.89403 10.8025 4.81465 11.8564 4.74951Z" fill="white"/>
<path fill-rule="evenodd" clip-rule="evenodd" d="M30.2607 5.07758C31.3686 5.18586 32.4757 5.31044 33.5807 5.45048V5.85311C33.103 5.79245 32.6244 5.73464 32.1454 5.68009V7.77382C31.9999 7.75713 31.8545 7.74084 31.7082 7.72456V5.63083C31.2264 5.5775 30.7434 5.52742 30.2607 5.4802V5.07758Z" fill="white"/>
<path fill-rule="evenodd" clip-rule="evenodd" d="M15.6023 9.85398C17.6365 9.67445 20.3892 9.62559 23.0187 9.82548C23.1682 9.83688 23.3137 9.8723 23.4519 9.93092C24.3134 10.2949 25.8418 11.0912 27.5413 12.0678C27.6163 12.111 27.6868 12.1614 27.7517 12.2188C28.2019 12.6174 29.3425 13.7899 29.3425 13.7899L28.9868 13.719C28.9369 13.7092 28.8903 13.6897 28.8482 13.6612C28.1285 13.1755 27.0778 12.5433 26.1972 12.0975C26.0927 12.045 25.9796 12.0112 25.8633 11.999C25.435 11.953 24.8559 11.9127 24.4771 11.8972C24.2903 11.8895 24.163 11.8581 23.9803 11.7649C23.631 11.587 22.7849 11.2015 22.3634 11.0399C22.1831 10.9707 22.0911 10.9544 21.9145 10.9572C21.1903 10.9678 19.5407 11.0207 18.6982 11.0733C18.669 11.0749 18.6411 11.0736 18.6127 11.0692L18.2111 11.0061C19.3498 10.809 22.1645 10.557 23.3295 10.4956L22.8554 10.3364C22.7638 10.3059 22.6686 10.2896 22.5717 10.2871C22.3188 10.2811 21.7564 10.2698 21.0264 10.2688L20.777 10.2689C19.6712 10.271 18.2485 10.2983 16.9363 10.3975C16.8216 10.406 16.7098 10.4337 16.6044 10.4805C16.0744 10.7144 14.7819 11.4184 13.4857 12.1415L13.1979 12.3023C12.8628 12.4899 12.5312 12.6765 12.2163 12.8543C12.2163 12.8543 12.378 12.6455 12.4092 12.6048C12.4367 12.5693 12.4453 12.5628 12.4825 12.5384C12.5346 12.5041 12.7125 12.3864 12.8917 12.267L13.0245 12.1784C13.1322 12.1064 13.2283 12.0417 13.2824 12.0043C13.3092 11.986 13.3262 11.9729 13.3598 11.9477C13.7501 11.6521 14.366 11.1311 14.7331 10.8082C14.8162 10.7353 14.8867 10.6507 14.9447 10.5562C15.0634 10.3633 15.1931 10.154 15.2729 10.038C15.341 9.93743 15.4573 9.86699 15.6023 9.85397V9.85398Z" fill="white"/>
<path fill-rule="evenodd" clip-rule="evenodd" d="M16.5878 11.8287C16.6344 11.8283 16.6636 11.8788 16.6405 11.9191L15.6575 13.6195C15.6028 13.7197 15.5112 13.7942 15.4026 13.8271L13.5592 14.4065C13.3453 14.4716 13.1645 14.5066 12.9417 14.5237C12.5328 14.5546 11.3184 14.5929 11.3184 14.5929L11.3451 14.5351C11.3577 14.5078 11.38 14.4862 11.4075 14.4744L11.9821 14.2294C12.0251 14.211 12.0627 14.183 12.0915 14.1467L12.979 13.0492C13.0264 12.9905 13.0884 12.9344 13.1544 12.8994C13.7408 12.5896 14.7834 12.1242 15.5136 11.8792C15.5825 11.856 15.6753 11.8413 15.7478 11.8405L16.5878 11.8287Z" fill="white"/>
<path fill-rule="evenodd" clip-rule="evenodd" d="M12.0001 14.8839C12.0386 14.8807 12.0751 14.9023 12.0901 14.9377C12.1408 15.0561 12.127 15.1884 12.0779 15.3016C12.0589 15.3476 12.0001 15.3924 11.9519 15.403L11.5487 15.493C11.5244 15.4983 11.5021 15.4787 11.5037 15.4539L11.5414 14.9784C11.5443 14.9462 11.5694 14.9206 11.6014 14.9181L12.0001 14.8839Z" fill="white"/>
<path fill-rule="evenodd" clip-rule="evenodd" d="M20.9415 12.876C21.0018 12.8654 21.0638 12.874 21.1193 12.9004L21.5404 13.1028C21.5817 13.1227 21.6121 13.1606 21.623 13.2062C21.6802 13.448 21.7503 13.7684 21.7973 14.0407C21.8163 14.1539 21.7952 14.2695 21.7381 14.3693C21.5639 14.6734 21.2061 15.2205 21.0059 15.5144C20.9613 15.5804 20.956 15.6602 20.9698 15.7387C21.0606 16.2427 21.4391 18.0026 21.4391 18.0026L21.2008 17.7848C21.1534 17.7409 21.1222 17.6945 21.1019 17.6338C20.9325 17.1359 20.6157 16.0958 20.4698 15.5897C20.4463 15.5063 20.4641 15.4171 20.5188 15.3508C20.7672 15.0479 21.1291 14.5634 21.3406 14.2565C21.3998 14.1702 21.4192 14.0749 21.3844 14.0037C21.3357 13.9035 21.2539 13.7513 21.1753 13.6133C21.1542 13.575 21.1189 13.5465 21.0772 13.5327L20.7915 13.4407C20.7417 13.4248 20.6882 13.4256 20.6388 13.4435C20.0163 13.6703 19.1792 13.9972 18.667 14.2105C18.592 14.2418 18.5612 14.2443 18.4704 14.2304C18.3221 14.2085 17.8901 14.1307 17.6782 14.0908C17.6401 14.0835 17.6211 14.0403 17.6405 14.0065L17.8918 13.5693C17.9258 13.5103 17.9821 13.4683 18.0486 13.4533C18.8566 13.2685 19.9252 13.0559 20.9415 12.876V12.876Z" fill="white"/>
<path fill-rule="evenodd" clip-rule="evenodd" d="M12.1562 13.3342L11.9909 13.5385C11.9816 13.5475 11.9726 13.556 11.9633 13.5654C11.8178 13.6733 11.2056 14.1443 11.0398 14.2762C10.9928 14.3137 10.9742 14.3462 10.9632 14.4053C10.9259 14.6137 10.864 15.0098 10.8457 15.2292C10.8405 15.2936 10.8129 15.3253 10.7477 15.3518C10.4636 15.4678 10.1269 15.5899 9.85455 15.6994C9.7962 15.7226 9.77999 15.7316 9.74554 15.7581C9.71839 15.7792 9.35653 16.1037 9.35653 16.1037C9.35653 16.1037 10.1431 15.9091 10.4316 15.8436C10.5005 15.8281 10.5301 15.8322 10.5937 15.8623C10.6532 15.89 10.7525 15.9295 10.8048 15.9486C10.885 15.9783 10.9276 15.9771 11.0163 15.9575C11.3413 15.8847 11.8879 15.7544 12.1789 15.6783C12.33 15.6388 12.4127 15.5977 12.5408 15.5077C12.6801 15.4104 13.0331 15.1446 13.0331 15.1446C13.0331 15.1446 13.0266 15.1914 13.0217 15.2174C13.0181 15.2398 13.01 15.2524 12.9954 15.27C12.9237 15.3567 12.7981 15.4979 12.7357 15.5627C12.5926 15.7113 12.5071 15.7642 12.3276 15.8395C11.501 16.1855 10.0884 16.7229 9.02871 17.0913C8.95942 17.1158 8.92943 17.1357 8.87797 17.1886C8.82205 17.2456 8.74749 17.3287 8.74749 17.3287C8.74749 17.3287 9.61142 17.3918 9.87522 17.4223C9.96072 17.4321 10.0219 17.4602 10.0871 17.5168C10.3039 17.704 11.0216 18.4462 11.2364 18.7039C11.2364 18.7039 9.19607 19.0446 8.25069 19.2803C8.13399 19.3092 8.07563 19.3837 8.04929 19.4778C7.97109 19.7538 7.78671 20.6413 7.78671 20.6413C7.78671 20.6413 7.72107 20.6201 7.62949 20.5672C7.56668 20.5309 7.53466 20.5008 7.46578 20.4275C7.24209 20.1902 6.87456 19.7359 6.69788 19.4725C6.64602 19.3947 6.62413 19.2958 6.68897 19.2164C6.88064 18.9795 7.2656 18.5471 7.47793 18.3249C7.50063 18.3008 7.5294 18.2589 7.55979 18.1987C7.63123 18.0561 7.72542 17.695 7.75822 17.5646L7.7687 17.5225L7.77009 17.5168C7.77009 17.5168 7.76806 17.518 7.7644 17.5203L7.72562 17.5448C7.67306 17.578 7.58814 17.6317 7.55168 17.6548C7.49697 17.6898 7.48198 17.7048 7.45928 17.7529C7.42484 17.8253 7.36446 17.9397 7.31867 18.0191C7.30368 18.0452 7.26356 18.0855 7.24209 18.1022C6.97099 18.3102 6.67154 18.5337 6.45839 18.6843C6.4438 18.6945 6.42516 18.69 6.4126 18.6778C6.38545 18.6505 6.27158 18.5207 6.25132 18.4901C6.2343 18.4645 6.22658 18.4405 6.22658 18.4095C6.2262 18.3554 6.23146 18.2601 6.23673 18.1893C6.24322 18.1054 6.26713 18.0655 6.36884 17.9597C6.4827 17.8412 6.6067 17.7166 6.73718 17.5888C7.0569 17.3185 7.8641 16.6606 9.30547 15.6274C9.33262 15.6078 9.35734 15.585 9.37719 15.5578C9.52874 15.3526 9.95868 14.7924 10.0649 14.6593C10.0798 14.6406 10.0965 14.6231 10.1155 14.608C10.2853 14.4732 10.3692 14.415 10.5414 14.3059C10.943 14.0519 11.7206 13.5886 12.1562 13.3342L12.1562 13.3342Z" fill="white"/>
<path fill-rule="evenodd" clip-rule="evenodd" d="M8.89739 20.3156L8.7195 21.5487L8.1145 20.8354C8.22472 20.5956 8.54687 20.3693 8.89739 20.3156Z" fill="white"/>
<path fill-rule="evenodd" clip-rule="evenodd" d="M12.8819 20.9697C12.5804 21.468 12.2201 21.9973 11.9478 22.3278C11.9122 22.371 11.8648 22.4044 11.8109 22.4247C11.513 22.5367 11.0166 22.7052 10.6511 22.8172L12.8819 20.9697Z" fill="white"/>
<path fill-rule="evenodd" clip-rule="evenodd" d="M25.7438 12.9639C25.9034 12.9048 26.0785 12.9089 26.2353 12.9753C27.4518 13.4882 29.4973 14.6949 30.6344 15.5449C30.7442 15.6271 30.7879 15.6837 30.8167 15.8164C31.0838 17.0361 31.1851 18.9214 31.0169 20.5087C31.0047 20.6227 30.982 20.6911 30.9229 20.8128C30.2024 22.2926 29.3916 23.6853 28.5382 24.7597L28.5399 24.7421C28.551 24.6277 28.6122 23.9826 28.6155 23.6336C28.6159 23.5941 28.6342 23.5579 28.6654 23.5339C28.8238 23.4101 29.0414 23.2343 29.1646 23.1272C29.2246 23.0751 29.2578 23.036 29.289 22.9855C29.6367 22.4213 30.2583 21.2399 30.5087 20.5291C30.5699 20.3556 30.5942 20.172 30.5792 19.9884C30.499 18.9979 30.3442 17.6256 30.1136 16.73C30.0743 16.5773 29.9738 16.4483 29.834 16.3762C29.6351 16.2736 29.2448 16.0949 28.3562 15.737C28.233 15.6874 28.1179 15.6186 28.0166 15.5331C27.4339 15.0413 26.523 14.304 25.9561 13.8798C25.7903 13.7557 25.5788 13.7105 25.377 13.7565C24.9641 13.8505 24.4385 13.9816 24.1427 14.0622C24.0422 14.0895 24.0025 14.0919 23.8988 14.0797C23.8447 14.0734 23.7749 14.0666 23.7016 14.0599L23.5904 14.05C23.4613 14.039 23.3401 14.0296 23.2926 14.026L23.2715 14.0244C24.2355 13.5696 25.1631 13.1772 25.7437 12.9639L25.7438 12.9639Z" fill="white"/>
<path fill-rule="evenodd" clip-rule="evenodd" d="M11.3905 19.2209C11.4861 19.19 11.5878 19.1863 11.685 19.2099C12.1235 19.3158 13.0514 19.5441 13.7529 19.7245C13.8514 19.7497 13.9741 19.8421 14.0264 19.9297L14.1792 20.1849C14.2327 20.2745 14.2363 20.3844 14.1889 20.4772C14.0614 20.7255 13.8795 21.0617 13.6873 21.4084L13.5418 21.6692C13.2741 22.1464 13.0075 22.6068 12.8561 22.849C12.7564 23.009 12.7009 23.0798 12.5234 23.1429C11.8334 23.3868 10.9763 23.6783 10.467 23.844C10.3628 23.8778 10.3276 23.9413 10.3478 24.0573C10.3843 24.2686 10.5018 24.9859 10.5468 25.1951C10.5634 25.2725 10.625 25.334 10.7393 25.312C11.0403 25.2546 11.8419 25.0575 11.8419 25.0575C11.8419 25.0575 11.6056 25.277 11.4642 25.4064C11.4383 25.4309 11.4083 25.4488 11.3746 25.4598C11.1562 25.533 10.623 25.6833 10.4568 25.7199C10.3272 25.748 10.2445 25.6967 10.2113 25.5493C10.2113 25.5493 9.98393 24.5772 9.90167 24.2466C9.88871 24.1961 9.87574 24.1526 9.85994 24.1029C9.79834 23.9115 9.65044 23.5354 9.56696 23.3383C9.55724 23.3155 9.55237 23.2911 9.55276 23.2659C9.55519 23.0408 9.59654 22.5384 9.59654 22.5384C9.59654 22.5384 10.0873 23.0004 10.3247 23.1674C10.3782 23.2052 10.4102 23.213 10.4759 23.1963C10.8021 23.112 11.5521 22.8628 11.9638 22.7081C12.0578 22.6727 12.1401 22.6133 12.2041 22.5355C12.63 22.0189 13.1641 21.2153 13.4725 20.6091C13.515 20.5257 13.5231 20.43 13.4964 20.3404L13.4299 20.1206C13.4105 20.0563 13.3428 19.9838 13.2804 19.9598C12.5546 19.6826 11.9825 19.4766 11.3102 19.2466L11.3905 19.2209Z" fill="white"/>
<path fill-rule="evenodd" clip-rule="evenodd" d="M24.3951 16.7343L24.6459 16.8438C24.72 16.8759 24.7877 16.9231 24.8436 16.9818C26.3814 18.5939 27.6113 20.2655 27.8577 20.7059C27.9051 20.7906 27.9375 20.8753 27.9492 20.9722C28.2256 23.3232 27.9881 25.8139 27.4237 27.9805C27.3726 28.1759 27.3155 28.276 27.1283 28.4173C26.5256 28.8726 25.626 29.5986 24.7314 30.3388L24.4494 30.5727C23.3718 31.4689 22.3479 32.3464 21.9135 32.7501C21.8045 32.8519 21.7093 32.9667 21.6315 33.0941C21.4277 33.4267 21.1167 33.9991 20.9639 34.2832L20.9213 34.3627C20.8906 34.42 20.8729 34.4534 20.8729 34.4534C20.6703 34.0092 20.2286 32.9255 20.077 32.4875C20.0276 32.3446 20.0187 32.2697 20.071 32.0784C20.3181 31.1701 21.4864 28.5296 21.7137 28.0521L21.7141 28.2475C21.7141 28.276 21.7096 28.3041 21.7007 28.331C21.5982 28.6432 20.9701 30.7243 20.8425 31.6269C20.8141 31.8276 20.8165 31.8817 20.8425 32.0788C20.8984 32.5001 21.1492 33.2728 21.1492 33.2728C21.1492 33.2728 21.2979 32.961 21.4365 32.7501C21.5046 32.6467 21.5455 32.597 21.6566 32.4863C22.2182 31.9283 23.1763 31.0658 24.1744 30.1985L24.5277 29.8927C25.2942 29.2318 26.0596 28.5887 26.6643 28.0973C26.8215 27.9695 26.8802 27.884 26.9151 27.6413C27.0885 26.4461 27.1388 24.3007 27.0342 22.7394C27.0144 22.4447 26.9191 22.1597 26.7538 21.915C26.3745 21.352 25.9211 20.8191 25.2334 20.1348C25.1354 20.0367 25.0685 19.9113 25.0434 19.7745C24.8428 18.6997 24.395 16.7343 24.395 16.7343H24.3951Z" fill="white"/>
<path fill-rule="evenodd" clip-rule="evenodd" d="M16.2985 17.5167C16.2985 17.5167 16.4383 17.9714 16.573 18.4651L16.6202 18.6403C16.7053 18.9621 16.7812 19.2797 16.8087 19.4806C16.8351 19.674 16.8306 19.7261 16.7621 19.9113C16.596 20.355 16.2905 21.0687 15.9645 21.7983L15.8239 22.1112C15.4239 22.9964 15.019 23.8515 14.8223 24.2217C14.7255 24.4041 14.6343 24.523 14.4519 24.709C14.0358 25.1344 13.2391 25.9385 12.746 26.3883C12.5669 26.552 12.5186 26.6916 12.4822 26.9033C12.4234 27.2432 12.3651 27.8233 12.3489 28.123C12.3347 28.3864 12.3772 28.5097 12.5235 28.7707C13.3927 30.3278 16.2945 33.9103 17.1211 34.6627C17.1811 34.7172 17.2249 34.7538 17.3513 34.8381C17.4729 34.9195 17.8692 35.1776 17.8692 35.1776C17.885 35.1886 17.8984 35.2033 17.9085 35.22L18.0519 35.4736C18.0519 35.4736 18.0385 35.4669 18.0143 35.4549L17.9524 35.4239C17.9026 35.399 17.8367 35.3661 17.761 35.3281L17.5768 35.2355C17.2944 35.0932 16.9578 34.922 16.7808 34.8263C16.7078 34.7868 16.6393 34.7404 16.5757 34.6871C15.6076 33.8794 12.641 30.3926 11.7686 28.9368C11.551 28.5732 11.5287 28.4556 11.5579 28.1116C11.6126 27.4712 11.6973 26.6659 11.7714 26.313C11.8164 26.1001 11.863 25.9751 12.0255 25.787C12.5715 25.1557 13.2376 24.3222 13.8866 23.467L14.1147 23.1646C15.0983 21.8527 16.0044 20.5395 16.3427 19.8706C16.4201 19.7183 16.4266 19.6654 16.4282 19.5217C16.4327 19.1048 16.3002 18.2931 16.2653 18.0879C16.26 18.0557 16.2584 18.0232 16.2612 17.9906L16.2985 17.5167Z" fill="white"/>
<path fill-rule="evenodd" clip-rule="evenodd" d="M18.9505 22.6767C18.9505 22.6767 19.0623 23.3431 19.0964 23.5365C19.1154 23.646 19.1195 23.6753 19.0919 23.7828C19.0025 24.1284 18.5896 25.95 18.2591 27.8147L18.2077 28.1093C18.0726 28.8946 17.956 29.6743 17.888 30.3412C17.8495 30.7202 17.8621 30.811 17.9617 31.1473C18.2442 32.0975 19.2888 34.58 19.4894 35.0327C19.5117 35.0827 19.5251 35.1353 19.5316 35.1894L19.6069 35.7748C19.2722 35.2672 17.4536 31.9098 16.7392 30.0505C16.6549 29.8315 16.6387 29.7236 16.7319 29.321C17.2287 27.185 18.5728 23.5552 18.9505 22.6767H18.9505Z" fill="white"/>
</g>
<defs>
<clipPath id="clip0">
<rect width="38" height="42" fill="white"/>
</clipPath>
</defs>
</svg>
