<svg width="47" height="45" viewBox="0 0 47 45" fill="none" xmlns="http://www.w3.org/2000/svg">
<path d="M14.3253 19.3439L14.3857 19.4026L14.4326 19.3327C16.1228 16.8168 17.142 14.7038 17.7656 12.4906C18.3889 10.2785 18.616 7.96985 18.7262 5.06481C18.8619 3.59238 19.4638 2.36419 20.3799 1.54767C21.2956 0.731529 22.5291 0.32301 23.9368 0.495782C25.5019 0.730044 27.0707 1.78946 28.1008 3.60542C29.9249 6.82123 30.4581 11.5815 29.762 16.7852L29.7514 16.8647H29.8316H42.8584C43.0643 16.8655 43.2701 16.9089 43.4588 16.9913C45.1788 17.7436 46.3203 19.3529 46.5251 21.1387C46.6922 22.595 46.2484 24.1663 45.2167 25.5069L45.1951 25.535L45.2049 25.5691C45.8345 27.7582 45.2793 30.3648 43.5149 32.5726C43.4491 32.6537 43.3748 32.7281 43.2938 32.7939L43.2633 32.8187L43.2685 32.8576C43.5308 34.831 42.92 37.0244 41.3991 38.9277C41.2764 39.0753 41.1255 39.1994 40.957 39.2911L40.9302 39.3057L40.9226 39.3354C40.4672 41.1203 39.4837 42.8047 37.4745 44.4455L37.4741 44.4458C37.2057 44.6679 36.8587 44.7937 36.5107 44.7938C32.665 44.7777 29.6442 44.7983 27.2241 44.8148C26.4314 44.8202 25.7031 44.8251 25.0314 44.8282C22.3077 44.8408 20.5162 44.8224 19.1262 44.6783C17.7395 44.5345 16.6584 44.1996 15.7329 43.6453C15.2969 43.3841 14.9146 43.0852 14.5006 42.7568L14.4505 42.717L14.4062 42.7632C13.8376 43.3578 13.0453 43.7346 12.1756 43.7346H3.69871C2.00656 43.7346 0.594804 42.3214 0.594804 40.6271V21.561C0.594804 19.8668 2.00656 18.4536 3.69871 18.4536H12.1756C13.0046 18.4536 13.7632 18.7971 14.3253 19.3439ZM42.4301 19.9109L42.4141 19.902H42.3958H28.0464C27.6065 19.9006 27.1931 19.6698 26.9097 19.3257C26.6263 18.9816 26.4787 18.5313 26.5611 18.0986C27.5931 12.7094 26.9192 7.67971 25.4636 5.11097C25.1024 4.32835 24.3179 3.64379 23.5492 3.50549C23.1612 3.43569 22.7745 3.50503 22.4529 3.77508C22.1332 4.04366 21.8868 4.50334 21.7611 5.19672L21.7604 5.19659L21.76 5.20655C21.6283 8.63482 21.2499 11.5052 20.2863 14.3468C19.3227 17.1884 17.7727 20.0049 15.2935 23.323L15.2795 23.3417V23.3651V39.4686V39.5022L15.3056 39.5232C15.4105 39.6078 15.512 39.6899 15.6103 39.7694C16.3266 40.3489 16.8715 40.7896 17.2809 41.0349C17.8446 41.3726 18.2974 41.5399 19.4258 41.6569C20.5183 41.7701 22.2142 41.7875 24.8368 41.7804C25.5615 41.7784 26.3571 41.7746 27.2307 41.7704C29.5207 41.7594 32.3463 41.7458 35.8325 41.7565L35.859 41.7566L35.8789 41.7392C36.7936 40.9391 37.3177 40.3108 37.6487 39.5974L37.695 39.4977H37.585L35.9689 39.4977L35.9679 39.4977C35.1687 39.509 34.4294 38.7794 34.4294 37.979C34.4294 37.1795 35.1679 36.4604 35.9689 36.4604H39.3539H39.3926L39.4133 36.4277C40.1462 35.2681 40.3732 34.1208 40.2501 33.2032L40.2419 33.1423H40.1805L37.0269 33.1423L37.0259 33.1423C36.2267 33.1536 35.4875 32.4241 35.4875 31.6237C35.4875 30.8241 36.226 30.105 37.0269 30.105H41.47H41.5087L41.5294 30.0723C42.2623 28.9127 42.4893 27.7654 42.3662 26.8478L42.358 26.7869H42.2966L38.0849 26.7869L38.084 26.787C37.2847 26.7983 36.5455 26.0687 36.5455 25.2683C36.5455 24.4688 37.284 23.7497 38.0849 23.7497H42.5942H42.6272L42.6483 23.7243C43.2957 22.9424 43.5833 22.1523 43.5071 21.4868L43.4373 21.4948L43.5071 21.4868C43.4259 20.7798 43.0408 20.2527 42.4301 19.9109ZM3.69871 21.4908H3.6285V21.561V40.6271V40.6973H3.69871H12.1756H12.2458V40.6271C12.2458 38.5054 12.2418 36.3806 12.2378 34.2565C12.2298 30.011 12.2218 25.7687 12.2458 21.5614L12.2462 21.4908H12.1756H3.69871Z" fill="#11589A" stroke="white" stroke-width="0.140415"/>
</svg>
