<svg width="47" height="47" viewBox="0 0 47 47" fill="none" xmlns="http://www.w3.org/2000/svg">
<path d="M23.5 44.2304C12.1696 44.2304 2.85357 34.8304 2.85357 23.5C2.85357 21.15 3.27321 18.8839 4.02857 16.7018L16.1143 40.2018C16.2821 40.5375 16.45 40.7893 16.8696 40.7893C17.2893 40.7893 17.4571 40.5375 17.625 40.2018L23.2482 27.6964C23.3321 27.5286 23.4161 27.4446 23.5 27.4446C23.6679 27.4446 23.6679 27.6125 23.7518 27.6964L29.4589 40.2018C29.6268 40.5375 29.7946 40.7893 30.2143 40.7893C30.6339 40.7893 30.8018 40.5375 30.9696 40.2018L43.0554 16.7018C43.8107 18.8 44.2304 21.0661 44.2304 23.5C44.1464 34.8304 34.8304 44.2304 23.5 44.2304ZM23.5 18.1286C23.3321 18.1286 23.3321 17.9607 23.2482 17.8768L16.7857 3.94464C18.8839 3.18929 21.15 2.76964 23.5 2.76964C25.85 2.76964 28.1161 3.18929 30.2143 3.94464L23.7518 17.8768C23.6679 17.9607 23.6679 18.1286 23.5 18.1286ZM16.7018 33.2357C16.5339 33.2357 16.5339 33.0679 16.45 32.9839L5.875 12.6732C7.72143 9.65179 10.4071 7.13393 13.5125 5.37143L20.9821 21.4857C21.15 21.8214 21.3179 21.9054 21.5696 21.9054H25.4304C25.6821 21.9054 25.85 21.8214 26.0179 21.4857L33.4036 5.37143C36.5089 7.13393 39.1946 9.65179 41.0411 12.6732L30.55 32.9839C30.4661 33.1518 30.3821 33.2357 30.2982 33.2357C30.1304 33.2357 30.1304 33.0679 30.0464 32.9839L26.0179 24.0875C25.85 23.7518 25.6821 23.6679 25.4304 23.6679H21.5696C21.3179 23.6679 21.15 23.7518 20.9821 24.0875L16.9536 32.9839C16.8696 33.0679 16.8696 33.2357 16.7018 33.2357ZM23.5 47C36.5089 47 47 36.5089 47 23.5C47 10.4911 36.5089 0 23.5 0C10.4911 0 0 10.4911 0 23.5C0 36.5089 10.4911 47 23.5 47Z" fill="#001E50"/>
</svg>
