<svg width="48" height="48" viewBox="0 0 48 48" fill="none" xmlns="http://www.w3.org/2000/svg">
<path d="M38.2222 24C38.2222 31.8599 31.8599 38.2222 24 38.2222V24H38.2222ZM24 9.77777V24H9.7778C9.7778 16.1401 16.1402 9.77777 24 9.77777Z" fill="#0166B1"/>
<path d="M24 9.77777C31.8599 9.77777 38.2222 16.1401 38.2222 24H24V9.77777ZM9.77777 24H24V38.2222C16.1401 38.2222 9.77777 31.8599 9.77777 24Z" fill="white"/>
<path d="M24 9.77778V10.5576C31.4115 10.5576 37.4424 16.5871 37.4424 24H38.2222C38.2222 16.1458 31.8542 9.77778 24 9.77778ZM24 37.4424C16.5885 37.4424 10.5576 31.4129 10.5576 24H9.77778C9.77778 31.8542 16.1458 38.2222 24 38.2222V37.4424ZM24 0C10.7455 0 0 10.7455 0 24C0 37.2545 10.7455 48 24 48C37.2545 48 48 37.2545 48 24C48 10.7455 37.2545 0 24 0ZM46.4393 24C46.4393 36.3923 36.3937 46.4393 24 46.4393C11.6063 46.4393 1.56068 36.3923 1.56068 24C1.56068 11.6077 11.6077 1.56068 24 1.56068C36.3923 1.56068 46.4393 11.6077 46.4393 24Z" fill="#6F6F6F"/>
<path d="M13.7437 12.4219C14.5107 11.6197 14.9449 10.6928 14.1779 9.80795C13.7606 9.32772 13.06 9.22272 12.4791 9.45933L12.4213 9.48173L12.4397 9.43133C12.5257 9.20311 12.5806 8.47507 11.9561 7.97244C11.6516 7.72743 11.2695 7.63642 10.8833 7.67563C10.1628 7.74843 9.60879 8.23706 8.10031 9.90736C7.64495 10.4114 6.98234 11.2066 6.58478 11.7219L10.7282 15.6253C12.1013 14.116 12.661 13.5546 13.7437 12.4219ZM8.33716 11.467C9.17176 10.4534 10.0585 9.53353 10.4603 9.16951C10.5872 9.05471 10.7254 8.9399 10.8931 8.8951C11.1652 8.82089 11.4458 9.0127 11.5092 9.28992C11.5726 9.56854 11.3964 9.83315 11.2005 10.0516C10.7592 10.5458 9.14074 12.2273 9.14074 12.2273L8.33716 11.467ZM9.95983 12.9959C9.95983 12.9959 11.536 11.341 12.0506 10.8118C12.255 10.6018 12.3861 10.4744 12.5271 10.4058C12.7089 10.3176 12.9077 10.2994 13.0854 10.417C13.2602 10.5332 13.3405 10.7334 13.2968 10.9322C13.2447 11.1688 13.0501 11.3942 12.8894 11.5665C12.6723 11.7975 10.8029 13.7842 10.8001 13.787L9.95983 12.9959ZM24.4737 7.76663L25.8003 4.81526L25.8849 4.55344L25.8609 4.82646L26.0005 8.77049C26.4657 8.81389 26.9465 8.8783 27.4202 8.9567L27.2045 3.11556C26.5419 3.04276 25.8821 2.99095 25.2223 2.96295L23.9154 6.18454L23.8689 6.42395L23.8224 6.18454L22.5169 2.96295C21.8571 2.99095 21.1973 3.04276 20.5347 3.11556L20.319 8.9567C20.7927 8.8783 21.2735 8.81529 21.7387 8.77049L21.8783 4.82646L21.8543 4.55344L21.9389 4.81526L23.2655 7.76663H24.4737H24.4737ZM35.4913 13.8724C35.8169 14.2196 36.2864 14.7796 36.55 15.1199L41.4054 12.0593C41.1629 11.7443 40.7766 11.2654 40.4876 10.928L37.4128 12.9469L37.2028 13.1261L37.3592 12.8993L38.7169 10.2084L37.7568 9.25492L35.0458 10.6032L34.8174 10.7586L34.9992 10.55L37.0336 7.49782C36.6755 7.1954 36.3315 6.91818 35.8931 6.58216L32.8112 11.3998C33.2018 11.6981 33.7163 12.1363 34.0448 12.4345L36.9462 10.9392L37.1323 10.8034L36.9955 10.9882L35.4913 13.8724Z" fill="#6F6F6F"/>
</svg>
